<?xml version="1.0" standalone="no"?>
<!DOCTYPE svg PUBLIC "-//W3C//DTD SVG 20010904//EN"
 "http://www.w3.org/TR/2001/REC-SVG-20010904/DTD/svg10.dtd">
<svg version="1.0" xmlns="http://www.w3.org/2000/svg"
 width="469.000000pt" height="380.000000pt" viewBox="0 0 469.000000 380.000000"
 preserveAspectRatio="xMidYMid meet">

<g transform="translate(0.000000,380.000000) scale(0.100000,-0.100000)"
fill="#000000" stroke="none">
<path d="M3927 3598 c8 -29 17 -56 19 -60 3 -4 20 -118 39 -254 33 -227 35
-277 18 -339 -5 -17 -4 -18 11 -6 22 18 20 3 -4 -36 -35 -58 -66 -67 -250 -70
-91 -2 -225 -4 -297 -6 -111 -2 -133 0 -137 13 -2 8 -3 -111 -2 -265 l1 -280
35 3 c45 3 694 155 783 182 130 40 175 116 164 275 -8 103 -62 300 -122 440
-42 98 -142 282 -170 311 -5 6 -21 33 -35 61 -14 27 -35 57 -47 66 l-22 17 16
-52z"/>
<path d="M690 3593 c-151 -170 -272 -407 -342 -669 -41 -156 -43 -249 -4 -328
15 -30 37 -61 49 -68 48 -32 157 -63 497 -143 195 -46 367 -86 382 -90 l27 -7
3 279 c2 153 2 280 0 283 -2 3 -130 8 -285 11 -295 6 -330 9 -360 37 -43 39
-50 70 -44 187 8 139 42 375 63 438 21 64 26 56 9 -18 -31 -137 -64 -477 -52
-527 4 -14 21 -40 38 -59 24 -27 28 -29 18 -10 -27 55 18 453 76 684 6 21 4
27 -10 27 -9 0 -13 5 -10 10 3 6 2 10 -4 10 -5 0 -28 -21 -51 -47z m40 -65
c-6 -20 -19 -89 -30 -155 -12 -72 -17 -93 -14 -53 6 75 32 228 40 242 12 18
13 1 4 -34z m-53 -340 c-2 -13 -4 -3 -4 22 0 25 2 35 4 23 2 -13 2 -33 0 -45z
m-10 -95 c-2 -16 -4 -5 -4 22 0 28 2 40 4 28 2 -13 2 -35 0 -50z m-10 -100
c-2 -16 -4 -5 -4 22 0 28 2 40 4 28 2 -13 2 -35 0 -50z m613 -153 c14 -4 -93
-8 -240 -8 -146 0 -274 3 -285 8 -26 11 491 11 525 0z"/>
<path d="M4051 3475 c122 -189 210 -394 259 -608 39 -168 17 -302 -59 -356
-46 -33 -163 -66 -560 -159 -206 -48 -376 -92 -378 -98 -2 -6 4 -21 14 -33
l18 -22 390 91 c508 119 551 134 602 210 53 76 56 181 13 358 -65 267 -197
538 -332 685 -31 33 -24 19 33 -68z m306 -866 c-12 -102 -66 -157 -187 -194
-134 -39 -816 -193 -824 -185 -5 5 1 11 15 15 13 3 195 45 404 94 364 85 456
112 510 147 29 19 75 108 75 146 0 15 3 28 6 28 4 0 4 -23 1 -51z"/>
<path d="M2125 3001 c-71 -4 -7 -8 220 -13 281 -6 399 -15 613 -44 29 -3 51
-9 48 -11 -2 -3 -62 2 -133 11 -195 24 -512 38 -668 31 -275 -12 -579 -46
-705 -79 -48 -13 -51 -12 -47 4 3 13 0 17 -10 13 -11 -4 -13 -14 -9 -36 3 -16
6 -223 6 -458 l0 -429 23 -10 c12 -5 161 -57 331 -114 169 -58 315 -111 322
-117 15 -12 19 -49 6 -49 -8 0 -328 109 -550 186 -57 20 -101 38 -99 40 2 2
141 -44 310 -101 169 -58 312 -105 319 -105 9 0 8 4 -2 14 -19 17 -648 231
-657 223 -3 -4 -2 -17 4 -29 8 -18 69 -42 332 -132 177 -61 322 -115 322 -121
0 -5 -120 -173 -266 -373 l-265 -363 0 -108 c0 -75 4 -112 13 -119 27 -23 260
-92 372 -112 214 -37 350 -45 503 -32 243 22 531 94 575 144 14 17 17 40 17
132 l-1 111 -269 368 c-265 360 -289 400 -257 424 6 6 131 51 277 101 146 49
290 100 321 111 l56 21 6 293 c4 160 7 372 7 469 0 159 -2 177 -17 182 -30 9
-252 44 -353 55 -228 26 -479 34 -695 22z m938 -78 c-7 -2 -21 -2 -30 0 -10 3
-4 5 12 5 17 0 24 -2 18 -5z m50 -10 c-7 -2 -19 -2 -25 0 -7 3 -2 5 12 5 14 0
19 -2 13 -5z m-979 -1245 c-20 -34 -406 -558 -411 -558 -3 0 10 21 29 48 19
26 110 154 202 285 92 130 172 237 177 237 6 0 7 -6 3 -12z m-434 -598 c-12
-16 -24 -30 -26 -30 -3 0 4 14 16 30 12 17 24 30 26 30 3 0 -4 -13 -16 -30z
m-30 -44 c0 -2 -8 -10 -17 -17 -16 -13 -17 -12 -4 4 13 16 21 21 21 13z m-46
-61 c-9 -14 -18 -25 -21 -25 -5 0 5 18 20 38 17 22 18 13 1 -13z m264 -127
c117 -71 142 -92 141 -116 0 -14 -2 -13 -8 3 -5 11 -63 53 -129 93 -165 100
-207 97 -207 -15 0 -46 4 -58 24 -74 13 -11 22 -21 19 -24 -2 -2 -16 7 -31 21
-23 22 -27 33 -27 84 0 52 3 61 27 80 38 30 68 22 191 -52z m1051 58 c10 -12
6 -13 -29 -9 -36 5 -50 -1 -143 -57 -124 -75 -147 -96 -147 -129 l0 -26 23 27
c37 44 237 161 280 163 22 1 37 -2 37 -9 0 -6 -15 -11 -33 -12 -34 -1 -237
-118 -269 -156 -36 -41 -80 10 -45 54 6 9 48 38 92 65 165 102 209 119 234 89z
m-1154 -39 c16 -13 15 -14 -12 -10 -36 6 -50 -10 -56 -62 -3 -33 -4 -30 -5 17
-1 37 2 58 11 61 22 10 43 7 62 -6z m117 -98 c65 -40 118 -78 118 -85 0 -31
-125 -29 -223 2 -34 11 -51 23 -58 41 -19 52 -4 113 29 113 9 0 70 -32 134
-71z m1048 25 c0 -62 -11 -78 -70 -103 -56 -24 -203 -40 -213 -24 -9 15 14 33
137 107 133 81 146 83 146 20z"/>
<path d="M1928 2983 c17 -2 47 -2 65 0 17 2 3 4 -33 4 -36 0 -50 -2 -32 -4z"/>
<path d="M1828 2973 c12 -2 32 -2 45 0 12 2 2 4 -23 4 -25 0 -35 -2 -22 -4z"/>
<path d="M1743 2963 c9 -2 25 -2 35 0 9 3 1 5 -18 5 -19 0 -27 -2 -17 -5z"/>
<path d="M1673 2953 c9 -2 23 -2 30 0 6 3 -1 5 -18 5 -16 0 -22 -2 -12 -5z"/>
<path d="M1608 2943 c6 -2 18 -2 25 0 6 3 1 5 -13 5 -14 0 -19 -2 -12 -5z"/>
<path d="M1548 2933 c7 -3 16 -2 19 1 4 3 -2 6 -13 5 -11 0 -14 -3 -6 -6z"/>
<path d="M3216 2899 c-2 -8 -7 -216 -10 -464 -4 -341 -9 -452 -18 -462 -7 -7
-152 -60 -323 -118 -170 -59 -318 -114 -328 -124 -18 -17 -17 -19 6 -47 55
-67 508 -704 517 -729 14 -38 1 -242 -17 -260 -7 -8 -62 -30 -121 -49 -348
-112 -708 -126 -1057 -42 -85 21 -212 62 -277 91 -27 11 -23 -21 6 -49 26 -27
199 -87 336 -117 117 -25 318 -49 415 -49 119 0 324 26 460 59 118 29 291 86
299 100 8 12 19 239 13 263 -4 12 -128 190 -276 393 -206 282 -267 373 -258
381 7 6 154 59 327 118 173 59 320 110 327 114 9 6 14 129 19 487 l7 480 -21
19 c-17 15 -22 16 -26 5z m21 -602 c-1 -105 -2 -19 -2 193 0 212 1 298 2 193
2 -106 2 -280 0 -386z m-7 -367 c0 -5 -2 -10 -4 -10 -2 0 -155 -52 -341 -115
-299 -103 -365 -122 -342 -99 8 8 657 232 675 233 6 1 12 -3 12 -9z m-133
-1182 c-2 -29 -3 -6 -3 52 0 58 1 81 3 53 2 -29 2 -77 0 -105z m-9 -89 c-9
-27 -244 -98 -424 -129 -311 -53 -607 -30 -922 72 -68 22 -122 41 -120 43 2 3
51 -11 109 -30 412 -133 865 -125 1264 23 94 35 98 36 93 21z"/>
<path d="M3513 2853 c71 -2 183 -2 250 0 67 1 10 3 -128 3 -137 0 -192 -2
-122 -3z"/>
<path d="M1330 2831 c-6 -12 -10 -119 -10 -284 0 -293 3 -283 -66 -266 -22 5
-185 43 -364 84 -383 89 -448 108 -512 152 l-49 32 23 -41 c26 -46 57 -68 138
-99 71 -27 859 -211 871 -203 5 3 9 136 9 310 0 254 -2 308 -15 320 -12 13
-15 12 -25 -5z m-797 -406 c78 -22 783 -185 801 -185 9 0 16 -5 16 -10 0 -6
-10 -8 -22 -5 -13 3 -187 43 -388 90 -342 80 -490 120 -490 132 0 3 7 2 15 -1
9 -3 39 -12 68 -21z"/>
<path d="M1225 2181 c44 -3 76 -9 70 -12 -5 -4 -131 -13 -279 -20 -206 -9
-271 -10 -274 -1 -2 7 -11 12 -20 12 -12 0 -10 -5 9 -18 14 -9 40 -33 57 -53
60 -69 74 -72 294 -54 106 9 198 18 204 20 6 2 14 26 18 54 4 28 9 58 12 66 5
13 -8 15 -82 13 l-89 -2 80 -5z"/>
<path d="M1337 2184 c-2 -5 -8 -37 -12 -72 -6 -52 -11 -65 -29 -72 -11 -5
-108 -16 -215 -24 -226 -18 -232 -17 -312 65 l-51 53 22 -44 c32 -62 110 -137
152 -145 32 -6 424 20 459 31 13 4 18 24 24 91 6 77 5 87 -13 105 -11 11 -22
16 -25 12z m20 -116 c-2 -18 -4 -6 -4 27 0 33 2 48 4 33 2 -15 2 -42 0 -60z
m-7 -67 c0 -16 -437 -49 -462 -35 -12 6 0 10 40 11 31 2 127 9 212 17 199 17
210 18 210 7z"/>
<path d="M3316 2143 c11 -98 -13 -87 230 -106 213 -17 216 -17 247 2 33 20
107 103 107 119 0 9 -537 38 -546 30 -5 -6 128 -15 351 -24 83 -4 157 -10 165
-15 20 -11 -38 -11 -243 1 -92 6 -196 11 -232 12 -45 2 -65 6 -65 15 0 7 -4
13 -10 13 -6 0 -7 -19 -4 -47z"/>
<path d="M998 2173 c23 -2 59 -2 80 0 20 2 1 4 -43 4 -44 0 -61 -2 -37 -4z"/>
<path d="M803 2163 c20 -2 54 -2 75 0 20 2 3 4 -38 4 -41 0 -58 -2 -37 -4z"/>
<path d="M3879 2098 c-83 -95 -101 -100 -294 -83 -88 8 -185 15 -217 15 -51 0
-56 -2 -51 -20 3 -10 10 -24 17 -29 14 -12 439 -45 472 -37 45 12 164 139 164
176 0 11 -24 40 -33 40 -3 0 -29 -28 -58 -62z m49 -19 c-26 -48 -91 -107 -126
-116 -25 -6 -442 24 -450 32 -3 3 -3 7 -1 8 5 4 305 -19 367 -28 61 -9 123 23
176 91 49 64 66 70 34 13z"/>
<path d="M1430 1648 c0 -128 -3 -276 -6 -328 -6 -88 -5 -97 16 -120 12 -14 28
-37 36 -52 8 -16 19 -28 24 -28 4 0 95 102 201 228 107 125 216 251 243 280
l49 52 -164 0 c-90 0 -182 5 -203 10 -45 10 -136 94 -167 153 -11 20 -22 37
-24 37 -3 0 -5 -105 -5 -232z m24 176 c3 -8 2 -12 -4 -9 -6 3 -10 10 -10 16 0
14 7 11 14 -7z m366 -164 c-80 -3 -154 -2 -165 2 -11 4 54 6 145 6 l165 -2
-145 -6z"/>
<path d="M3197 1853 c-4 -3 -7 -16 -7 -28 0 -14 -27 -48 -74 -93 l-74 -72
-189 0 -189 0 51 -54 c27 -30 131 -152 230 -270 99 -118 185 -215 190 -215 6
-1 21 20 34 45 25 46 25 46 23 327 -1 155 2 300 7 322 10 40 9 50 -2 38z"/>
<path d="M3221 1841 c-7 -13 -11 -128 -11 -328 l0 -308 -30 -52 c-17 -29 -35
-53 -40 -53 -5 0 -105 111 -222 248 -117 136 -225 259 -240 275 -25 26 -53 37
-46 18 3 -9 487 -579 515 -607 22 -22 33 -14 74 52 l38 59 0 346 c1 289 -1
349 -13 358 -12 10 -17 8 -25 -8z m27 -630 c-3 -43 -13 -69 -42 -115 -52 -81
-58 -62 -7 23 35 59 41 79 42 128 1 32 4 49 6 39 3 -11 3 -45 1 -75z"/>
<path d="M3105 1758 l-60 -63 63 60 c58 55 67 65 59 65 -1 0 -29 -28 -62 -62z"/>
<path d="M1948 1608 c-36 -40 -131 -152 -213 -248 -160 -189 -225 -260 -237
-260 -4 0 -19 18 -34 41 -14 22 -28 38 -31 35 -9 -8 79 -156 93 -156 12 0 520
589 531 616 6 17 -14 44 -32 44 -7 0 -42 -33 -77 -72z m45 -26 c-279 -330
-455 -532 -464 -532 -6 0 -7 6 -2 13 25 42 497 585 505 581 5 -3 -13 -31 -39
-62z"/>
<path d="M2630 1672 c8 -4 96 -5 195 -2 l180 6 -195 2 c-107 1 -188 -2 -180
-6z"/>
<path d="M1870 471 c4 -15 13 -37 19 -48 11 -21 122 -83 231 -128 36 -15 92
-40 125 -56 82 -40 123 -38 226 9 46 22 129 59 183 83 98 43 166 93 166 120 0
8 -7 22 -14 32 -13 17 -19 17 -127 -5 -101 -20 -142 -23 -354 -22 -207 0 -255
3 -345 22 -58 12 -108 22 -112 22 -4 0 -3 -13 2 -29z m880 -6 c0 -8 -112 -62
-272 -131 -118 -51 -156 -64 -180 -59 -28 7 -100 38 -300 133 -164 77 -102 58
93 -29 101 -45 202 -84 224 -86 33 -3 72 11 235 86 219 101 200 93 200 86z
m44 -28 c-8 -23 -57 -50 -224 -124 -219 -98 -214 -97 -272 -77 -27 9 -47 18
-45 20 2 2 18 -1 36 -7 40 -14 72 -8 153 30 34 16 110 51 168 76 58 26 123 59
145 74 44 31 48 31 39 8z m-357 -13 c-3 -3 -12 -4 -19 -1 -8 3 -5 6 6 6 11 1
17 -2 13 -5z m-377 -74 c8 -5 11 -10 5 -10 -5 0 -17 5 -25 10 -8 5 -10 10 -5
10 6 0 17 -5 25 -10z m90 -40 c8 -5 11 -10 5 -10 -5 0 -17 5 -25 10 -8 5 -10
10 -5 10 6 0 17 -5 25 -10z m50 -20 c8 -5 11 -10 5 -10 -5 0 -17 5 -25 10 -8
5 -10 10 -5 10 6 0 17 -5 25 -10z"/>
</g>
</svg>
